<svg viewBox="0 0 331.59433 329.90863" xmlns="http://www.w3.org/2000/svg">
<path fill="currentColor"
     d="m 169.34044,328.04414 c -4.675,-0.99836 -12.72247,-3.68421 -17.88327,-5.96855 -5.1608,-2.28435 -9.81727,-4.00869 -10.34771,-3.83187 -0.53045,0.17681 1.13873,2.26011 3.70928,4.62956 2.57054,2.36945 4.43475,4.54706 4.14266,4.83914 -0.89067,0.89068 -13.72639,-1.86607 -20.62096,-4.42879 -6.75378,-2.5104 -20.97073,-9.84196 -26.94315,-13.89436 -1.893736,-1.28493 -3.624606,-2.15478 -3.846386,-1.933 -0.22178,0.22178 1.01175,2.45986 2.741186,4.97351 3.87851,5.63722 2.81299,5.84833 -7.284024,1.44316 -10.36002,-4.51992 -19.33995,-10.86498 -28.06329,-19.82904 l -7.64881,-7.85988 0.65107,4.90802 c 0.40845,3.07905 0.27314,4.90801 -0.3631,4.90801 -0.5578,0 -3.73365,-2.90712 -7.05746,-6.46028 -6.01121,-6.42601 -16.18603,-24.38637 -16.18603,-28.57123 0,-1.01775 -0.3938,-2.09384 -0.87511,-2.3913 -0.48132,-0.29747 -0.64779,1.47597 -0.36995,3.94098 0.27957,2.48031 0.0866,4.48183 -0.43202,4.48183 -1.31868,0 -9.58097,-11.51353 -12.55827,-17.5 -1.36769,-2.75 -3.50948,-8.15 -4.75955,-12 -2.87521,-8.85516 -2.94531,-8.96403 -4.44846,-6.90835 -1.5216401,2.08098 -1.9288801,1.44735 -3.5937801,-5.59165 -1.44167,-6.0952 -1.75526,-20.91691 -0.59712,-28.22287 l 0.74867,-4.72288 -3.43019,1.43323 c -1.8866001,0.78827 -3.67772011,1.18568 -3.98027011,0.88314 -0.62069,-0.62069 5.34284011,-13.11265 13.12955021,-27.50282 5.03921,-9.31268 8.52832,-12.9725 14.46844,-15.17635 1.95782,-0.72637 1.79754,-0.25251 -1.54899,4.57961 -2.95877,4.27222 -5.47666,12.38141 -6.74679,21.72894 -0.83287,6.12952 -1.7406,9.12748 -3.25488,10.75 l -2.09991,2.25 h 2.29932 c 2.02146,0 2.22681,0.36253 1.69931,3 -0.33,1.65 -0.2514,3 0.17467,3 0.42607,0 1.32635,3.81563 2.00063,8.47918 1.25834,8.70309 6.02804,25.76706 7.36352,26.34357 0.4112,0.17751 2.22444,2.80352 4.02941,5.83559 1.80497,3.03207 3.73177,6.26184 4.28177,7.17726 2.71969,4.52665 8.18311,11.86679 12.19464,16.38356 2.96783,3.34162 4.30735,5.66525 3.98234,6.90808 -0.30721,1.17476 0.0344,1.87276 0.91664,1.87276 0.77351,0 1.40638,-0.53827 1.40638,-1.19616 0,-0.65789 1.4625,0.17419 3.25,1.84909 1.7875,1.67489 7.583,6.22182 12.87889,10.1043 8.77097,6.43009 9.59323,7.31225 9.22862,9.90091 -0.36876,2.61821 -0.32242,2.66479 0.58889,0.59186 0.54403,-1.2375 1.17975,-2.25 1.4127,-2.25 0.23296,0 4.52246,2.02486 9.53223,4.49968 5.431398,2.6831 9.108664,5.10537 9.108664,6 0,1.75682 1.65888,2.02368 2.21469,0.35627 0.38889,-1.16667 21.98677,4.4577 24.47595,6.37386 0.65485,0.50411 1.37493,2.12112 1.60017,3.59337 0.3535,2.31063 0.43003,2.21512 0.55936,-0.69818 0.14485,-3.26284 0.25783,-3.35216 3.39983,-2.68789 7.86595,1.663 27.21709,3.46061 31.27129,2.90492 3.8567,-0.52862 4.71005,-0.29477 6.47566,1.77456 l 2.03359,2.38341 -0.62368,-2.75 c -0.61383,-2.70661 -0.54703,-2.75027 4.23473,-2.76746 8.7415,-0.0314 32.42332,-4.7091 39.85841,-7.87294 10.24639,-4.36011 28.25161,-14.07753 33.5,-18.07995 3.575,-2.7263 7.05393,-4.97327 7.73095,-4.99327 0.67702,-0.02 1.51252,1.08551 1.85667,2.45671 0.91082,3.62898 2.37692,2.06321 1.74046,-1.85878 -0.49296,-3.03778 0.0165,-3.88924 5.82245,-9.73168 3.49947,-3.52144 8.45158,-8.87763 11.00468,-11.90263 3.75533,-4.44943 4.89059,-5.26123 5.9434,-4.25 2.29965,2.20884 3.3251,1.33116 1.16836,-1 l -2.08165,-2.25 5.86868,-9.87799 c 5.75166,-9.68102 10.90296,-21.59407 13.08561,-30.26215 1.13047,-4.48949 3.18425,-5.636 5.66039,-3.15986 0.83374,0.83374 1.2,0.8592 1.2,0.0834 0,-0.61413 -1.14768,-1.95262 -2.55039,-2.97443 l -2.5504,-1.85783 1.15745,-11.47557 c 1.80731,-17.91867 -0.29762,-35.99928 -6.10728,-52.45928 -3.74989,-10.62424 -3.74597,-11.5163 0.0506,-11.5163 1.65,0 3,-0.48955 3,-1.08789 0,-0.71258 -1.36046,-0.85805 -3.94345,-0.42166 l -3.94346,0.66624 -2.68586,-5.32834 c -1.47722,-2.93059 -4.68251,-8.42601 -7.12286,-12.21204 -4.79217,-7.43473 -4.71503,-8.30487 0.85298,-9.6213 3.22473,-0.76241 3.24332,-0.7939 0.52691,-0.89265 -1.54866,-0.0563 -3.7005,0.37115 -4.78187,0.94989 -1.70913,0.91469 -3.12046,-0.10981 -10.79673,-7.83742 -4.85683,-4.88931 -9.00733,-9.41984 -9.22333,-10.06785 -0.53358,-1.60074 -4.88233,1.44626 -4.88233,3.42085 0,0.79992 3.39472,5.38691 7.54381,10.19329 20.00143,23.17001 29.18253,42.96643 32.80859,70.74235 1.73801,13.31333 0.7599,31.28284 -2.29414,42.14692 -6.77506,24.10083 -27.02903,55.84658 -41.81639,65.54235 -26.18012,17.16577 -37.94801,22.58564 -58.5082,26.94676 -13.91979,2.9526 -43.54346,3.21296 -57.73367,0.50743 -15.92357,-3.03603 -28.0142,-6.6792 -38.499996,-11.6009 -32.135748,-15.08349 -56.873368,-41.15844 -65.504778,-69.04603 -6.51424,-21.0471 -6.63015,-39.87525 -0.33398,-54.25 0.90338,-2.0625 1.97413,-3.75 2.37943,-3.75 0.40531,0 0.95062,6.4125 1.21181,14.25 0.48755,14.63019 1.99006,22.41557 6.78441,35.15406 l 2.22209,5.90406 1.80212,-2.38912 c 0.99116,-1.31401 2.01122,-2.17084 2.2668,-1.90406 0.25558,0.26679 2.53701,7.01006 5.06984,14.98506 5.30758,16.71166 6.5251,19.25235 5.84774,12.20292 -0.90189,-9.38618 0.6732,-9.1851 7.72142,0.98574 6.54976,9.45155 17.0331,21.6089 17.0331,19.753 0,-0.57254 -0.7023,-2.39909 -1.56068,-4.059 -0.85837,-1.65991 -1.42087,-3.86396 -1.25,-4.89787 0.24938,-1.5089 1.692,-0.55759 7.31068,4.82086 3.85,3.68539 10.149998,10.42994 13.999994,14.98789 12.44581,14.73438 14.27324,16.67743 17.41144,18.513 1.69871,0.99359 3.08856,1.54474 3.08856,1.22478 0,-0.62621 -8.82867,-10.51329 -17.5921,-19.70109 -7.968286,-8.35416 -7.282006,-9.42921 3.29636,-5.16367 10.86543,4.3813 23.80939,7.29578 32.29574,7.27176 l 6.5,-0.0184 -2.96926,-1.60678 -2.96926,-1.60678 2.46193,-0.91073 c 1.35406,-0.5009 8.54023,-0.80146 15.96926,-0.66791 13.9461,0.2507 22.43524,-0.62634 21.45256,-2.21634 -0.30979,-0.50126 -1.6617,-0.91139 -3.00424,-0.91139 -3.96303,0 -2.83952,-1.37388 3.80901,-4.65785 8.98938,-4.4402 21.1659,-13.81829 29.25,-22.52771 10.25545,-11.04873 19.70009,-27.68161 22.03131,-38.79916 l 0.73071,-3.48472 -4.21994,3.81246 c -2.32096,2.09685 -4.41378,3.61862 -4.6507,3.38169 -0.23692,-0.23692 0.32964,-3.5344 1.25903,-7.32773 1.1133,-4.54401 1.68675,-10.99088 1.68087,-18.89698 -0.008,-10.36041 -0.37186,-13.05978 -2.66521,-19.75648 -1.46096,-4.26606 -4.10869,-10.34106 -5.88384,-13.5 -3.71958,-6.61906 -15.5366,-18.82303 -21.03223,-21.72092 -2.0625,-1.08757 -3.75,-2.32507 -3.75,-2.75 0,-0.42493 1.9125,-0.79998 4.25,-0.83344 l 4.25,-0.0609 -5.5,-2.64677 c -3.025,-1.45572 -8.53482,-4.11457 -12.24405,-5.90856 -3.70923,-1.79399 -10.00923,-4.23633 -14,-5.42743 -7.37266,-2.20046 -10.75595,-4.22273 -10.75595,-6.42906 0,-0.67295 2.43427,-3.30321 5.40949,-5.84502 4.99098,-4.26392 5.82966,-4.62147 10.84028,-4.62147 4.03573,0 6.94888,0.76501 11.34051,2.97809 5.86309,2.95459 22.40972,16.31507 22.40972,18.09459 0,0.51003 -1.6301,0.92732 -3.62244,0.92732 -5.58978,0 -2.82703,2.1977 6.34044,5.04367 6.45575,2.00413 8.6447,3.27143 12.84403,7.43609 6.78351,6.72752 18.05558,26.23596 16.21992,28.07163 -0.29144,0.29143 -2.1616,-0.43285 -4.15592,-1.60953 -1.99431,-1.17668 -3.62603,-1.89152 -3.62603,-1.58855 0,0.30298 1.96717,3.38493 4.37149,6.84878 2.40432,3.46385 5.13195,7.79149 6.0614,9.61698 2.83263,5.56344 4.77809,17.88345 4.05215,25.66109 -0.77245,8.27598 -1.35747,9.56098 -2.97598,6.53677 -1.10296,-2.0609 -1.26014,-1.79188 -1.84107,3.1509 -0.34934,2.97229 -2.38554,10.33797 -4.52489,16.36817 -3.54546,9.9936 -6.82988,24.11055 -5.83985,25.10058 0.41642,0.41642 9.22152,-13.68029 12.08688,-19.35073 0.89328,-1.76778 3.29708,-8.29278 5.34177,-14.5 3.60429,-10.9418 3.71171,-11.68934 3.52395,-24.52154 -0.19954,-13.63739 -1.1483,-18.9388 -5.94982,-33.24567 -6.93152,-20.65356 -19.73249,-37.21032 -38.55563,-49.86786 -4.26229,-2.86615 -9.26534,-6.54201 -11.11789,-8.16858 -1.85256,-1.62656 -6.40991,-4.73481 -10.12744,-6.90721 l -6.75916,-3.94983 3.37705,-2.06548 c 1.85739,-1.13602 5.40206,-2.81356 7.87706,-3.72786 2.475,-0.9143 4.88561,-1.9961 5.35691,-2.40399 2.38204,-2.06157 -23.47698,-4.3716 -29.64781,-2.64849 -4.58632,1.28066 -2.27727,2.38043 6.40336,3.04984 4.49949,0.34697 8.45239,0.91405 8.78422,1.26016 0.33183,0.34612 -0.51409,1.36762 -1.87983,2.27 -4.25487,2.81131 -24.00869,21.57803 -24.01287,22.81294 -0.008,2.23303 6.58866,9.83554 10.03457,11.56539 1.9038,0.95571 6.14123,2.24427 9.41652,2.86347 5.49182,1.03825 5.80409,1.23622 4.01423,2.54499 -2.91998,2.13515 -13.18095,5.05735 -20.48607,5.8342 -5.96876,0.63473 -15.15161,-0.67077 -21.23323,-3.01867 -3.00219,-1.15904 -2.07354,2.72771 2.25,9.41707 2.2,3.40383 4,6.45611 4,6.78284 0,2.13942 -21.99427,-5.38509 -27.77726,-9.50295 -1.62167,-1.15473 -3.20647,-1.84153 -3.52177,-1.52623 -0.98421,0.98421 1.26905,5.62506 4.85713,10.00384 1.89305,2.31021 3.4419,4.50693 3.4419,4.88159 0,0.64066 -6.5927,0.35841 -25.611706,-1.09649 -15.433488,-1.18061 -25.659868,3.17122 -26.989348,11.48531 -0.46268,2.89349 -1.25855,3.98566 -3.68798,5.06103 -2.29777,1.0171 -3.19867,1.06923 -3.4878,0.20183 -0.6932,-2.07959 -3.24544,-1.24106 -4.24791,1.39562 -0.53639,1.41081 -0.97525,4.33581 -0.97525,6.5 0,2.48477 -0.46066,3.93247 -1.25,3.92831 -3.90748,-0.0206 -13.12753,-9.94551 -14.69176,-15.81494 -0.83803,-3.14451 -0.10383,-10.81597 1.10432,-11.5388 2.07646,-1.24234 19.0557,-7.7606 29.12875,-11.18241 15.53178,-5.27613 18.41003,-6.98437 24.892148,-14.77342 l 5.054066,-6.07308 -2.22955,-1.80538 c -1.226246,-0.99296 -3.192186,-1.79107 -4.368756,-1.77357 -2.091128,0.0311 -2.095798,0.0647 -0.20806,1.49271 1.89312,1.43213 1.88537,1.50965 -0.39363,3.93553 -3.715068,3.95451 -10.158298,5.49383 -23.808978,5.68809 l -12.27145,0.17462 -0.61681,2.58862 c -0.98662,4.14068 -1.41658,4.36558 -3.8949,2.03731 -2.8504,-2.6778 -5.44539,-1.95348 -5.44539,1.51993 0,2.8988 -0.81146,3.14122 -3.55887,1.06319 -3.1631,-2.39245 -4.44113,-1.84304 -4.44113,1.90918 0,4.46319 -0.90985,4.90019 -5.01043,2.40648 -3.22086,-1.95873 -3.42677,-1.97004 -4.67934,-0.25705 -1.85838,2.54149 -1.58811,7.20039 0.71173,12.26879 1.08792,2.39756 1.97804,4.53506 1.97804,4.75 0,1.35329 -5.96177,-0.0659 -11.03507,-2.62691 -6.9019,-3.48407 -10.21053,-7.52179 -16.0833201,-19.62747 l -3.9514401,-8.14517 2.7438701,-6.68148 c 3.12186,-7.60187 4.7880101,-8.96027 9.1326201,-7.44573 3.75462,1.30887 9.04441,-1.18897 23.91461,-11.29247 9.82866,-6.67804 10.38562,-7.2555 14.5,-15.03373 C 57.806086,61.73228 63.091056,55 65.145656,55 c 0.66329,0 0.85348,1.32843 0.50108,3.5 -0.31239,1.925 -0.17159,3.47574 0.31287,3.44609 0.48446,-0.0297 2.77162,-2.70602 5.08257,-5.94749 5.76182,-8.08184 20.94888,-19.68132 23.035958,-17.59425 0.31639,0.3164 -0.240568,2.38444 -1.237688,4.59565 -0.99712,2.21122 -1.53005,4.30328 -1.1843,4.64903 0.34575,0.34576 4.128658,-2.72317 8.406464,-6.81983 4.27781,-4.09666 9.06178,-8.24994 10.63105,-9.22952 l 2.85322,-1.78105 -0.70429,4.16863 -0.70428,4.16863 3.11595,-1.61132 c 1.71377,-0.88622 7.04675,-2.98198 11.85106,-4.65724 C 143.25686,26.25531 154.50084,18.23911 163.04614,6.26395 165.50456,2.81878 167.76645,0 168.07256,0 c 0.30611,0 0.30477,3.2625 -0.003,7.25 -0.93816,12.15613 -5.79331,20.98493 -15.04213,27.35322 -3.25931,2.2442 -4.25792,3.30775 -2.68703,2.86177 1.375,-0.39037 2.96924,-1.08239 3.54275,-1.53781 0.57351,-0.45543 8.89851,-3.48933 18.5,-6.74201 20.96592,-7.10257 26.9452,-9.51189 38.52528,-15.52356 4.86118,-2.52362 9.02993,-4.39699 9.26388,-4.16303 1.01186,1.01186 -6.36137,10.60182 -13.53916,17.60964 -10.86226,10.60504 -20.07603,15.70134 -44.79275,24.77566 -6.42683,2.35951 -16.57829,8.85101 -17.31975,11.07538 -0.24794,0.74383 1.29757,-0.0475 3.43447,-1.75844 7.50366,-6.008 22.90508,-7.73938 42.47241,-4.77462 20.78579,3.14938 30.92817,6.84872 48.69657,17.76159 7.80075,4.79101 11.63127,5.24793 14.49372,1.72888 L 255.58358,73.5 253.2935,73.15837 c -1.25954,-0.18789 -5.47676,-2.49746 -9.37159,-5.13236 -7.86343,-5.31972 -13.21089,-8.15033 -18.83151,-9.96823 -6.20294,-2.00625 -4.6821,-3.70746 5.74963,-6.43157 l 5.98397,-1.56263 12.5082,5.3465 c 12.67336,5.4171 26.19905,10.19456 35.7582,12.63029 2.8875,0.73575 5.25,1.68523 5.25,2.10994 0,1.15764 -9.78539,3.83554 -14.4315,3.94937 -2.23767,0.0548 -5.1935,0.42855 -6.5685,0.83049 -2.40575,0.70325 -2.36805,0.7604 1,1.51588 7.42596,1.66569 40.7997,20.9929 45.00989,26.06586 1.38911,1.67378 1.04238,1.73147 -6.52139,1.085 -4.39367,-0.37552 -10.0135,-0.93951 -12.4885,-1.2533 l -4.5,-0.57054 6,3.95493 c 8.84625,5.83105 20.13372,18.52794 24.88185,27.98876 1.43998,2.86922 2.61815,5.64073 2.61815,6.15893 0,0.51819 -3.39921,-0.81685 -7.55381,-2.96676 C 313.63199,134.75902 309.55167,133 308.7192,133 c -2.24526,0 -0.91493,3.15178 3.14922,7.46104 6.20294,6.57703 15.2703,24.2949 17.93167,35.03896 1.24935,5.04371 2.2424,13.5 1.58534,13.5 -0.34112,0 -2.8533,-2.28611 -5.58262,-5.08025 -2.72932,-2.79414 -6.70325,-6.47419 -8.83094,-8.1779 l -3.86853,-3.09766 0.72511,3.30137 c 0.3988,1.81576 1.57563,4.74292 2.61516,6.5048 5.14016,8.71191 7.90695,29.76233 5.97507,45.45975 -1.40899,11.4487 -2.44852,13.91141 -4.04799,9.58989 -1.60376,-4.33312 -9.31465,-20.54896 -9.62418,-20.23944 -0.14393,0.14393 -0.99821,4.53169 -1.8984,9.75057 -2.59304,15.03331 -8.05759,32.60307 -13.68143,43.98887 l -5.18631,10.5 -0.81198,-7.44199 c -0.44658,-4.09309 -1.26557,-7.89559 -1.81998,-8.45 -0.67734,-0.67734 -1.00801,-0.468 -1.00801,0.63818 0,2.63143 -7.27694,15.96606 -12.21512,22.38359 -4.81447,6.25677 -18.66021,19.82823 -19.43673,19.0517 -0.25418,-0.25417 0.18445,-3.88648 0.97472,-8.0718 0.79027,-4.18532 1.11936,-7.60968 0.73131,-7.60968 -0.38805,0 -1.79649,1.18014 -3.12986,2.62254 -3.20964,3.47206 -19.38202,16.37429 -24.98486,19.93276 l -4.43946,2.81958 -21.80704,0.20294 c -11.99388,0.11162 -22.09209,0.48798 -22.44048,0.83637 -1.01707,1.01707 1.83895,3.31791 8.60747,6.93427 5.58029,2.9815 6.04187,3.44565 3.97657,3.99863 -4.03157,1.07945 -12.01924,0.57995 -20.83652,-1.303 z m 49,-20.6031 c 0,-0.85746 -0.45,-1.2809 -1,-0.94099 -0.55,0.33992 -1,1.04148 -1,1.55902 0,0.51754 0.45,0.94098 1,0.94098 0.55,0 1,-0.70155 1,-1.55901 z m -65,-17.3736 c 0,-0.51294 -0.9,-1.21826 -2,-1.56739 -3.29919,-1.04712 -2.2956,-2.2682 3.25,-3.95434 2.8875,-0.87794 7.725,-2.95227 10.75,-4.60961 5.4012,-2.95923 5.4333,-3.00299 1.78705,-2.43634 -2.04212,0.31736 -6.31712,1.79726 -9.5,3.28866 -4.35863,2.04232 -7.32974,2.71163 -12.03705,2.71163 -3.4375,0 -6.25,0.30261 -6.25,0.67245 0,0.36985 1.6875,1.21778 3.75,1.88429 2.0625,0.66651 4.875,2.03715 6.25,3.04587 2.80227,2.05578 4,2.34467 4,0.96478 z m 32.48012,-1.98148 c 1.31294,-0.51289 -0.8772,-1.00423 -6.5,-1.45821 -8.66312,-0.69947 -14.98012,-0.0681 -14.98012,1.4973 0,1.07165 18.72399,1.03758 21.48012,-0.0391 z m 23.98823,-10.51693 c 2.99206,-2.43706 7.59518,-5.69398 10.22916,-7.23759 6.3794,-3.73858 3.16265,-4.46863 -3.56227,-0.80848 -5.10431,2.77812 -15.46903,12.47709 -13.33352,12.47709 0.6746,0 3.67458,-1.99396 6.66663,-4.43102 z m -110.468346,-0.1357 c 0,-0.56626 -4.57296,-7.04321 -6.307218,-8.93328 -1.62189,-1.76759 0.46431,3.85049 2.506508,6.75 1.74243,2.47389 3.80071,3.65625 3.80071,2.18328 z m 90.574176,-0.55627 c 2.4529,-0.61765 4.6666,-1.45758 4.91933,-1.86651 0.60425,-0.97769 -8.10785,0.66277 -10.29578,1.93866 -2.31376,1.34927 -0.15338,1.32028 5.37645,-0.0721 z m 12.49382,-6.21528 c -0.0374,-0.36395 -0.293,-0.66173 -0.568,-0.66173 -0.275,0 -2.75,0 -5.5,0 -5.53459,0 -6.46361,1.08034 -2.25,2.61647 2.69705,0.98325 8.48026,-0.37581 8.318,-1.95474 z m 45.07411,-10.57773 c 2.27877,-4.8365 5.5999,-9.084 7.1028,-9.084 1.63853,0 10.92857,-8.43479 12.37877,-11.23917 1.53861,-2.97534 0.4456,-3.75415 -1.67787,-1.19553 -0.71449,0.86091 -5.1033,4.57341 -9.75291,8.25 -7.60859,6.01634 -8.79073,7.42207 -11.82337,14.05955 -1.85324,4.05616 -3.36953,7.6221 -3.36953,7.92431 0,1.66161 5.30031,-4.8061 7.14211,-8.71516 z m -174.642104,2.916 c -0.33992,-0.55 -1.06803,-1 -1.61803,-1 -0.55,0 -0.72189,0.45 -0.38197,1 0.33992,0.55 1.06804,1 1.61804,1 0.55,0 0.72188,-0.45 0.38196,-1 z m 148.906804,-1.95488 c 2.63906,-1.27755 7.33964,-4.78797 10.44574,-7.80094 3.1061,-3.01297 4.52245,-4.75428 3.14745,-3.86958 -9.89687,6.36781 -16.03317,9.68076 -19.02425,10.27109 -4.18168,0.82531 -9.97575,3.14367 -9.97575,3.99156 0,1.40066 10.9722,-0.44538 15.40681,-2.59213 z m -15.72126,-4.21943 c 1.27295,-1.19587 2.31445,-2.5801 2.31445,-3.07606 0,-1.05227 -5.86245,3.38586 -5.94467,4.50037 -0.0984,1.33412 1.26228,0.80025 3.63022,-1.42431 z m 13.60464,-7.57569 c 0.87667,-2.0625 1.89559,-4.875 2.26427,-6.25 1.16334,-4.33865 -1.4241,-0.84876 -3.58277,4.83239 -2.2403,5.89599 -1.10422,7.11747 1.3185,1.41761 z m 35.84805,-11.30446 c 1.9934,-4.19253 3.12711,-9.94554 1.95991,-9.94554 -0.81987,0 -4.09835,6.9624 -5.58861,11.86832 -1.11661,3.67588 1.66838,2.20017 3.6287,-1.92278 z M 277.73685,216.601 c 2.10638,-4.34921 0.96737,-4.64587 -2.19023,-0.57045 -1.47848,1.90823 -4.37356,5.31315 -6.4335,7.56651 -2.05994,2.25335 -3.44055,4.40178 -3.06804,4.7743 0.94668,0.94668 9.89628,-8.06309 11.69177,-11.77036 z m -233.396404,9.89905 c 0,-0.825 -0.43587,-1.5 -0.96861,-1.5 -0.53274,0 -0.7096,0.675 -0.39301,1.5 0.31658,0.825 0.75245,1.5 0.96861,1.5 0.21616,0 0.39301,-0.675 0.39301,-1.5 z m 222.984684,-10.75 c -0.0151,-6.17065 -1.17125,-9.89677 -2.62093,-8.44708 -0.91357,0.91356 -0.85437,9.57594 0.0857,12.53776 1.30946,4.12574 2.55048,2.12333 2.53526,-4.09068 z m 13.09475,-19.90735 c 1.95323,-3.86934 2.92243,-7.13972 2.71972,-9.17716 l -0.31496,-3.16549 -2.59904,5 c -1.42947,2.75 -2.90979,6.35 -3.28959,8 -0.3798,1.65 -0.94238,3.84386 -1.25019,4.87523 -1.12274,3.76203 1.71809,0.44201 4.73406,-5.53258 z m -8.9155,-4.3118 c -0.0502,-2.501 -0.61172,-6.45607 -1.24783,-8.78906 -1.11095,-4.07454 -1.19357,-4.14336 -2.09524,-1.74544 -0.66344,1.76437 -0.42663,4.47059 0.80762,9.22928 0.96046,3.70311 1.94439,6.53483 2.18651,6.29271 0.24212,-0.24212 0.39914,-2.48649 0.34894,-4.98749 z m 6.83606,-16.35271 c 0,-5.19903 -2.986,-12.06273 -5.84013,-13.42429 -2.2876,-1.0913 -2.72985,-2.0376 -3.15987,-6.76137 l -0.5,-5.49248 -1.25,3.39923 c -1.87693,5.10407 -1.63435,6.10937 3.2794,13.59069 2.49116,3.79287 4.78995,7.93427 5.1084,9.2031 0.80881,3.22257 2.3622,2.88398 2.3622,-0.51488 z m -39.63837,-3.67814 c -0.31658,-0.825 -0.75246,-1.5 -0.96862,-1.5 -0.21615,0 -0.39301,0.675 -0.39301,1.5 0,0.825 0.43588,1.5 0.96862,1.5 0.53274,0 0.70959,-0.675 0.39301,-1.5 z m 73.13837,-8.5 c -0.33992,-0.55 -1.82897,-0.96837 -3.30901,-0.92971 -2.40283,0.0628 -2.47682,0.16231 -0.69099,0.92971 2.77823,1.19385 4.73784,1.19385 4,0 z m -34.29846,-18.36811 c -2.72102,-5.6962 -5.45451,-10.6702 -6.07442,-11.05332 -1.41636,-0.87536 -1.4624,-1.23136 0.80502,6.22485 2.08741,6.86424 9.35967,19.12351 9.89228,16.676 0.17843,-0.81994 -1.90186,-6.15132 -4.62288,-11.84753 z m -12.20154,-6.05516 c 0,-1.97582 -4.87068,-7.57673 -6.58889,-7.57673 -2.10167,0 -1.74112,1.14396 1.6617,5.27216 3.21821,3.90425 4.92719,4.70358 4.92719,2.30457 z M 103.68978,124.46803 c -0.30982,-0.80739 -0.96517,-1.46798 -1.45633,-1.46798 -1.02609,0 -1.20654,2.35314 -0.25353,3.30615 1.06676,1.06676 2.31121,-0.27108 1.70986,-1.83817 z m 166.69227,-1.39023 c -1.20442,-2.25049 -10.62673,-10.07775 -12.13141,-10.07775 -1.61124,0 -0.9702,2.63573 1.09578,4.50542 2.76993,2.50675 11.42033,8.33473 11.82504,7.9668 0.18206,-0.16551 -0.17317,-1.24302 -0.78941,-2.39447 z m -19.10842,-6.93766 c -3.92705,-3.92705 -7.30441,-7.14009 -7.50525,-7.14009 -0.6954,0 0.94277,3.5164 3.35989,7.21214 2.379,3.63747 10.43345,9.38398 10.99881,7.84719 0.15765,-0.42854 -2.9264,-3.99219 -6.85345,-7.91924 z M 23.536246,108.79802 c 1.58075,-2.18126 1.13205,-2.562 -3.98334,-3.37998 -3.81057,-0.60934 -4.21246,-0.47605 -4.21246,1.39704 0,1.13886 0.9685,3.71214 2.15223,5.71841 l 2.15223,3.64775 1.32894,-2.84059 c 0.73092,-1.56233 1.884,-3.60651 2.5624,-4.54263 z m 99.432834,-6.29794 c -1.38489,-3.02502 -2.98632,-5.50003 -3.55872,-5.50003 -0.99158,0 1.63822,7.80012 4.1793,12.39602 1.03063,1.86404 1.20515,1.90441 1.53036,0.35401 0.20188,-0.96249 -0.76604,-4.22499 -2.15094,-7.25 z m 25.93023,3.96817 c -1.06762,-0.80751 -3.09262,-1.45225 -4.5,-1.43276 l -2.55887,0.0354 2.5,1.42913 c 1.375,0.78602 3.4,1.43076 4.5,1.43276 1.97326,0.004 1.97404,-0.016 0.0589,-1.46457 z m 103.3469,-3.62084 c -1.53771,-5.42238 -2.46665,-6.41923 -7.15577,-7.67882 -4.57066,-1.22777 -4.74914,-0.34556 -0.47418,2.34381 1.75933,1.10679 4.26539,3.9459 5.56902,6.30913 2.89014,5.23925 3.7127,4.85045 2.06093,-0.97412 z m -15.35957,-4.38843 c -3.51507,-2.65809 -12.5462,-4.48808 -12.5462,-2.54226 0,1.23293 7.76075,3.91382 11.5,3.97258 2.85883,0.0449 2.90806,-0.0224 1.0462,-1.43032 z M 39.415446,96.72505 c -0.12369,-1.1957 -1.49529,-0.96413 -1.925,0.325 -0.22,0.66 0.14,1.02 0.8,0.8 0.66,-0.22 1.16625,-0.72625 1.125,-1.125 z m 23.425,-1.725 c -0.33992,-0.55 -1.68992,-1 -3,-1 -1.31008,0 -2.66008,0.45 -3,1 -0.36852,0.59629 0.84262,1 3,1 2.15738,0 3.36853,-0.40371 3,-1 z m 45.284754,-2.75 c -0.28223,-1.36472 -1.23403,-1.69621 -4.32333,-1.50568 -6.473116,0.39922 -7.485186,1.58425 -1.96143,2.29664 2.75,0.35466 5.3705,0.71553 5.82333,0.80194 0.45282,0.0864 0.66047,-0.6304 0.46143,-1.5929 z m 39.75636,-0.31653 c 0.36253,-0.58659 0.50159,-1.20576 0.30902,-1.37594 -0.75998,-0.67158 -11.85014,-1.17939 -11.85014,-0.54261 0,2.27516 10.266,3.98175 11.54112,1.91855 z M 84.360466,89.4897 c 3.61722,-1.87054 4.97998,-4.31254 4.97998,-8.92391 0,-3.77257 -2.77359,-7.56574 -5.53212,-7.56574 -3.30253,0 -8.16075,2.91466 -12.21788,7.33004 -2.3375,2.5439 -4.25,4.99668 -4.25,5.45061 0,1.32734 8.24308,5.08959 11.29966,5.15732 1.53981,0.0341 4.11397,-0.61762 5.72036,-1.44832 z m -8.44859,-3.06108 c -2.22517,-2.22516 -1.94747,-6.00032 0.61713,-8.38961 3.39632,-3.16415 6.5557,-2.64311 8.48326,1.39903 1.524,3.19586 1.52124,3.61842 -0.0392,6 -1.95269,2.98019 -6.5671,3.48464 -9.06116,0.99058 z m 148.861904,1.69125 c -1.72009,-1.56071 -7.69265,-3.12011 -11.83256,-3.08941 -5.48909,0.0407 -2.83621,1.62916 5.6861,3.40466 6.28079,1.3085 7.84747,1.22815 6.14646,-0.31525 z m 17.17109,-0.95085 c -0.69671,-1.12731 -14.44347,-3.66326 -15.2867,-2.82003 -0.36945,0.36945 0.19542,1.32777 1.25527,2.12959 2.05322,1.55335 14.95717,2.18832 14.03143,0.69044 z M 60.325136,79.25005 c 0.008,-1.2375 -0.43469,-2.25 -0.98469,-2.25 -0.55,0 -0.99311,1.6875 -0.98469,3.75 0.0114,2.78938 0.26364,3.36576 0.98469,2.25 0.53316,-0.825 0.97627,-2.5125 0.98469,-3.75 z m 65.515304,1.75 c -2.60472,-2.71874 -3.47156,-3 -9.24611,-3 -3.9933,0 -6.14121,0.3733 -5.75389,1 0.33992,0.55 2.05398,1.0118 3.80902,1.02623 1.75504,0.0144 4.99098,0.87799 7.19098,1.91905 5.97731,2.82851 7.31309,2.51284 4,-0.94528 z m 30.5,-0.86407 c 0,-0.89974 -8.9976,-2.47165 -9.76353,-1.70572 -0.24021,0.2402 -0.14012,0.91667 0.22241,1.50326 0.78315,1.26715 9.54112,1.45299 9.54112,0.20246 z m 63.54112,-3.20246 c 1.04763,-1.6951 0.33007,-1.82409 -6.55136,-1.17764 -4.93132,0.46325 -5.88941,0.78197 -3.98976,1.32723 3.88575,1.11534 9.81132,1.03125 10.54112,-0.14959 z m -74.09112,-4.79699 c -1.19592,-1.08705 -7.25041,-3.13648 -9.26589,-3.13648 -2.13013,0 -0.62198,1.28525 3.13766,2.67393 3.82515,1.41286 7.47696,1.6885 6.12823,0.46255 z m -37.12639,-4.25169 c 4.62163,-3.80954 4.10895,-4.93328 -0.8519,-1.8673 -3.01293,1.86209 -4.55902,2.1501 -9.052596,1.68632 -6.030428,-0.6224 -7.162798,0.44751 -2.16911,2.04944 5.572766,1.7877 8.115416,1.39421 12.073606,-1.86846 z M 79.705586,63.92747 c 1.44918,-1.13992 2.63486,-2.51536 2.63486,-3.05653 0,-1.29721 -5.79238,2.14569 -6.43725,3.8262 -0.73051,1.90367 0.79682,1.59452 3.80239,-0.76967 z m 47.884824,-5.77353 c 6.78081,-3.94441 8.37717,-5.76849 4.14919,-4.74106 -5.8888,1.43102 -11.39916,4.69867 -11.39916,6.75971 0,2.29016 -0.30167,2.37415 7.24997,-2.01865 z M 104.9696,53.287 c 4.88157,-2.25589 7.6121,-2.78104 16.20433,-3.11651 7.70031,-0.30065 10.04466,-0.69229 9.2,-1.53695 -0.67887,-0.67886 -4.6229,-1.11503 -9.83349,-1.08747 -9.27102,0.049 -17.14934,2.53055 -20.783676,6.54645 -2.25852,2.49563 -1.76588,2.41951 5.212836,-0.80552 z m 54.37084,-10.29115 c 0,-1.186 -3.74629,-0.006 -5.07878,1.59913 -0.95994,1.15666 -0.64299,1.20404 1.96724,0.29411 1.71135,-0.59658 3.11154,-1.44854 3.11154,-1.89324 z m 16.73824,-5.4266 c 4.97414,-1.63529 7.77728,-3.5692 5.17345,-3.5692 -2.35748,0 -12.91169,4.28406 -12.91169,5.24098 0,0.53515 0.5625,0.7654 1.25,0.51167 0.6875,-0.25373 3.60721,-1.23629 6.48824,-2.18345 z m -37.28529,-2.72971 c 1.40088,-0.63829 2.54705,-1.49616 2.54705,-1.90638 0,-1.14208 -3.78569,0.10375 -5.08968,1.67496 -1.40738,1.69578 -0.79385,1.75162 2.54263,0.23142 z m 52.04705,-4.83949 c 0.33992,-0.55 0.14148,-1 -0.44098,-1 -0.58246,0 -1.05902,0.45 -1.05902,1 0,0.55 0.19844,1 0.44099,1 0.24254,0 0.71909,-0.45 1.05901,-1 z m 21.38706,23.52934 c -4.18172,-1.53908 -20.79716,-4.52215 -25.31327,-4.54465 -2.96006,-0.0148 -6.51634,-1.46561 -5.54483,-2.26214 0.25907,-0.2124 4.92455,-2.74122 10.36772,-5.61959 l 9.89668,-5.23339 h 9.72521 c 5.34886,0 13.49536,0.50921 18.10332,1.13158 10.56912,1.4275 27.11606,4.926 28.20388,5.96311 1.1539,1.10012 -4.0576,2.75419 -14.24873,4.52238 -4.7741,0.82832 -12.67888,2.85768 -17.56619,4.5097 -4.88731,1.65201 -9.13911,2.97196 -9.44844,2.9332 -0.30932,-0.0388 -2.18823,-0.66884 -4.17535,-1.4002 z"
     id="path2" /></svg>
